<!-- Generator: Adobe Illustrator 22.0.1, SVG Export Plug-In  -->
<svg version="1.1"
	 xmlns="http://www.w3.org/2000/svg" xmlns:xlink="http://www.w3.org/1999/xlink" xmlns:a="http://ns.adobe.com/AdobeSVGViewerExtensions/3.0/"
	 x="0px" y="0px" width="80px" height="80px" viewBox="0 0 80 80" style="enable-background:new 0 0 80 80;" xml:space="preserve">
<style type="text/css">
	.st0{fill:#4EC4CF;}
	.st1{fill:#FFFFFF;}
</style>
<defs>
</defs>
<g>
	<path class="st0" d="M41.2,0l-2.4,0C17.4,0,0,17.4,0,38.8l0,2.4C0,62.6,17.4,80,38.8,80h2.4C62.6,80,80,62.6,80,41.2v-2.4
		C80,17.4,62.6,0,41.2,0z"/>
	<g>
		<g>
			<path class="st1" d="M47.7,26.2c-2,0-3.6,0.6-3.6,2.6v22.5c0,2,1.6,2.6,3.6,2.6c2,0,3.6-0.6,3.6-2.6V28.7
				C51.3,26.8,49.7,26.2,47.7,26.2z"/>
			<path class="st1" d="M32.3,26.2c-2,0-3.6,0.6-3.6,2.6v22.5c0,2,1.6,2.6,3.6,2.6c2,0,3.6-0.6,3.6-2.6V28.7
				C35.9,26.8,34.3,26.2,32.3,26.2z"/>
		</g>
	</g>
</g>
</svg>