<!-- Generator: Adobe Illustrator 22.0.1, SVG Export Plug-In  -->
<svg version="1.1"
	 xmlns="http://www.w3.org/2000/svg" xmlns:xlink="http://www.w3.org/1999/xlink" xmlns:a="http://ns.adobe.com/AdobeSVGViewerExtensions/3.0/"
	 x="0px" y="0px" width="20.4px" height="20.5px" viewBox="0 0 20.4 20.5" style="enable-background:new 0 0 20.4 20.5;"
	 xml:space="preserve">
<style type="text/css">
	.st0{fill:#569BCA;}
</style>
<defs>
</defs>
<g>
	<g>
		<path class="st0" d="M0.7,8.3c0,4.1,3.4,7.5,7.5,7.5c1.7,0,3.3-0.6,4.5-1.5l5.7,5.2l0.7-0.7l-5.7-5.3c1.4-1.4,2.2-3.2,2.2-5.3
			c0-4.1-3.4-7.5-7.5-7.5S0.7,4.1,0.7,8.3z M1.9,8.3c0-3.5,2.9-6.4,6.4-6.4s6.4,2.9,6.4,6.4s-2.9,6.4-6.4,6.4S1.9,11.8,1.9,8.3z"/>
	</g>
</g>
<g>
	<g>
		<path class="st0" d="M18.5,20.5l-5.8-5.3c-1.3,0.9-2.9,1.3-4.5,1.3C3.7,16.5,0,12.8,0,8.3S3.7,0,8.3,0s8.3,3.7,8.3,8.3
			c0,1.9-0.7,3.8-1.9,5.3l5.7,5.3L18.5,20.5z M8.3,2.6c-3.1,0-5.7,2.5-5.7,5.7s2.5,5.7,5.7,5.7c3.1,0,5.7-2.5,5.7-5.7
			S11.4,2.6,8.3,2.6z"/>
	</g>
</g>
</svg>