<!-- Generator: Adobe Illustrator 22.0.1, SVG Export Plug-In  -->
<svg version="1.1"
	 xmlns="http://www.w3.org/2000/svg" xmlns:xlink="http://www.w3.org/1999/xlink" xmlns:a="http://ns.adobe.com/AdobeSVGViewerExtensions/3.0/"
	 x="0px" y="0px" width="31.7px" height="31.7px" viewBox="0 0 31.7 31.7" style="enable-background:new 0 0 31.7 31.7;"
	 xml:space="preserve">
<style type="text/css">
	.st0{fill:#569BCA;}
	.st1{fill:#FFFFFF;}
</style>
<defs>
</defs>
<g>
	<g>
		<g>
			<path class="st0" d="M15.9,0L15.9,0C7.1,0,0,7.1,0,15.9v0c0,8.8,7.1,15.9,15.9,15.9h0c8.8,0,15.9-7.1,15.9-15.9v0
				C31.7,7.1,24.6,0,15.9,0z"/>
		</g>
		<polygon class="st1" points="21.8,19.9 17.9,16 17.4,15.6 17.9,15.1 21.8,11.2 20.2,9.6 16.3,13.5 15.9,14 15.4,13.5 11.5,9.6 
			10,11.2 13.9,15.1 14.3,15.6 13.9,16 10,19.9 11.5,21.5 15.4,17.6 15.9,17.1 16.3,17.6 20.2,21.5 		"/>
	</g>
</g>
</svg>