<!-- Generator: Adobe Illustrator 22.0.1, SVG Export Plug-In  -->
<svg version="1.1"
	 xmlns="http://www.w3.org/2000/svg" xmlns:xlink="http://www.w3.org/1999/xlink" xmlns:a="http://ns.adobe.com/AdobeSVGViewerExtensions/3.0/"
	 x="0px" y="0px" width="80px" height="80px" viewBox="0 0 80 80" style="enable-background:new 0 0 80 80;" xml:space="preserve">
<style type="text/css">
	.st0{fill:#4EC4CF;}
	.st1{fill:#FFFFFF;}
</style>
<defs>
</defs>
<g>
	<path class="st0" d="M41.2,0l-2.4,0C17.4,0,0,17.4,0,38.8l0,2.4C0,62.6,17.4,80,38.8,80h2.4C62.6,80,80,62.6,80,41.2v-2.4
		C80,17.4,62.6,0,41.2,0z"/>
	<g>
		<g>
			<path class="st1" d="M41.5,21.9c-9.1,0-16.5,7.3-16.7,16.4h-5l7.5,8.4l7.5-8.4h-5.8c0.2-6.8,5.7-12.2,12.5-12.2
				c6.9,0,12.6,5.6,12.6,12.6s-5.6,12.6-12.6,12.6c-2.8,0-5.3-0.9-7.4-2.4l-2.9,3.1c2.8,2.2,6.4,3.6,10.3,3.6
				c9.2,0,16.7-7.5,16.7-16.8S50.7,21.9,41.5,21.9z"/>
		</g>
	</g>
</g>
</svg>