<!-- Generator: Adobe Illustrator 22.0.1, SVG Export Plug-In  -->
<svg version="1.1"
	 xmlns="http://www.w3.org/2000/svg" xmlns:xlink="http://www.w3.org/1999/xlink" xmlns:a="http://ns.adobe.com/AdobeSVGViewerExtensions/3.0/"
	 x="0px" y="0px" width="60px" height="60px" viewBox="0 0 60 60" style="enable-background:new 0 0 60 60;" xml:space="preserve">
<style type="text/css">
	.st0{opacity:0.9;}
	.st1{fill:#FFFFFF;}
</style>
<defs>
</defs>
<g>
	
		<path class="st1" d="M43.4,41.5l-6.8-6.8c1.8-2.1,2.9-4.8,2.9-7.8c0-6.6-5.3-11.9-11.9-11.9c-6.6,0-11.9,5.3-11.9,11.9
			s5.3,11.9,11.9,11.9c3,0,5.7-1.1,7.8-2.9l6.8,6.8c0.2,0.2,0.4,0.2,0.6,0.2s0.4-0.1,0.6-0.2C43.7,42.4,43.7,41.9,43.4,41.5z
			 M17.5,27c0-5.6,4.6-10.2,10.2-10.2c5.6,0,10.2,4.6,10.2,10.2s-4.6,10.2-10.2,10.2C22,37.2,17.5,32.6,17.5,27z"/>
</g>
</svg>