<!-- Generator: Adobe Illustrator 22.0.1, SVG Export Plug-In  -->
<svg version="1.1"
	 xmlns="http://www.w3.org/2000/svg" xmlns:xlink="http://www.w3.org/1999/xlink" xmlns:a="http://ns.adobe.com/AdobeSVGViewerExtensions/3.0/"
	 x="0px" y="0px" width="80px" height="80px" viewBox="0 0 80 80" style="enable-background:new 0 0 80 80;" xml:space="preserve">
<style type="text/css">
	.st0{fill:#4EC4CF;}
	.st2{fill:#FFFFFF;}
</style>
<defs>
</defs>
<g>
	<path class="st0" d="M41.2,0l-2.4,0C17.4,0,0,17.4,0,38.8l0,2.4C0,62.6,17.4,80,38.8,80h2.4C62.6,80,80,62.6,80,41.2v-2.4
		C80,17.4,62.6,0,41.2,0z"/>
	<g class="st1">
		<path class="st2" d="M52.7,38.6c1.1,0.6,1.1,2.1,0,2.8L42.9,47l-9.8,5.6c-1.1,0.6-2.4-0.2-2.4-1.4V40V28.7c0-1.2,1.3-2,2.4-1.4
			l9.8,5.6L52.7,38.6z"/>
	</g>
</g>
</svg>