<!-- Generator: Adobe Illustrator 22.0.1, SVG Export Plug-In  -->
<svg version="1.1"
	 xmlns="http://www.w3.org/2000/svg" xmlns:xlink="http://www.w3.org/1999/xlink" xmlns:a="http://ns.adobe.com/AdobeSVGViewerExtensions/3.0/"
	 x="0px" y="0px" width="101.1px" height="101.1px" viewBox="0 0 101.1 101.1" style="enable-background:new 0 0 101.1 101.1;"
	 xml:space="preserve">
<style type="text/css">
	.st0{fill:#1E2655;}
	.st1{fill:#FFFFFF;}
</style>
<defs>
</defs>
<g>
	<g>
		<g>
			<path class="st0" d="M50.5,0L50.5,0C22.6,0,0,22.6,0,50.5v0c0,27.9,22.6,50.5,50.5,50.5h0c27.9,0,50.5-22.6,50.5-50.5v0
				C101.1,22.6,78.5,0,50.5,0z"/>
		</g>
		<polygon class="st1" points="69.4,63.4 56.9,51 55.5,49.5 56.9,48.1 69.4,35.7 64.4,30.7 52,43.1 50.5,44.6 49.1,43.1 36.7,30.7 
			31.7,35.7 44.1,48.1 45.6,49.5 44.1,51 31.7,63.4 36.7,68.4 49.1,55.9 50.5,54.5 52,55.9 64.4,68.4 		"/>
	</g>
</g>
</svg>